<svg width="157" height="177" viewBox="0 0 157 177" fill="none" xmlns="http://www.w3.org/2000/svg">
<path d="M125.652 164.5H0.318359V0H86.485L125.652 39.1667V164.5Z" fill="#E7E6E9"/>
<path d="M125.685 39.25H86.1851L86.6851 0.25L125.685 39.25Z" fill="#C8CACB"/>
<path d="M115.952 143.035L123.77 135.217L153.067 164.501C155.231 166.663 155.231 170.17 153.068 172.333C150.905 174.496 147.398 174.496 145.236 172.332L115.952 143.035Z" fill="#5D5D5D"/>
<path d="M133.485 109.667C133.485 133.457 114.192 152.75 90.4017 152.75C66.611 152.75 47.3184 133.457 47.3184 109.667C47.3184 85.8759 66.611 66.5833 90.4017 66.5833C114.192 66.5833 133.485 85.8759 133.485 109.667Z" fill="#B9B9B9"/>
<path d="M125.651 109.667C125.651 129.143 109.878 144.917 90.4014 144.917C70.9251 144.917 55.1514 129.143 55.1514 109.667C55.1514 90.1905 70.9251 74.4167 90.4014 74.4167C109.878 74.4167 125.651 90.1905 125.651 109.667Z" fill="white"/>
<path d="M125.101 152.199L132.934 144.366L153.078 164.485C155.244 166.647 155.245 170.157 153.081 172.321C150.919 174.483 147.414 174.484 145.25 172.323L125.101 152.199Z" fill="#9D9D9D"/>
<path d="M73.2349 128L107.735 93.5M73.2349 93.5L107.735 128" stroke="#BD2733" stroke-width="8" stroke-linecap="round" stroke-linejoin="round"/>
</svg>
